PathFileType	4	(X/Y/Z)	/Users/niels/Desktop/University/Third Semester/Perception and Action/Exam/Gymnastics Motion Tracking/Code for Gym Tracking/Scripts/Analyzed Data/Start Salto/st_salto_good_id12_1_Sports2D/st_salto_good_id12_1_Sports2D_px_person00.trc
DataRate	CameraRate	NumFrames	NumMarkers	Units	OrigDataRate	OrigDataStartFrame	OrigNumFrames
29.83050847457627	29.83050847457627	8	22	m	29.83050847457627	154	177
Frame#	Time	Hip			RHip			RKnee			RAnkle			RBigToe			RSmallToe			RHeel			LHip			LKnee			LAnkle			LBigToe			LSmallToe			LHeel			Neck			Head			Nose			RShoulder			RElbow			RWrist			LShoulder			LElbow			LWrist		
		X1	Y1	Z1	X2	Y2	Z2	X3	Y3	Z3	X4	Y4	Z4	X5	Y5	Z5	X6	Y6	Z6	X7	Y7	Z7	X8	Y8	Z8	X9	Y9	Z9	X10	Y10	Z10	X11	Y11	Z11	X12	Y12	Z12	X13	Y13	Z13	X14	Y14	Z14	X15	Y15	Z15	X16	Y16	Z16	X17	Y17	Z17	X18	Y18	Z18	X19	Y19	Z19	X20	Y20	Z20	X21	Y21	Z21	X22	Y22	Z22
154	5.1625000000000005	1.8928323580446986	-0.4715897705883314	0.0	1.9086889506404752	-0.48478372656925156	0.0	1.9218740040747588	-0.6252198740267988	0.0	1.8454928045884507	-0.711057918760117	0.0	1.8261713112949687	-0.7749493650120728	0.0	1.8275274524155642	-0.7689411946173866	0.0	1.8242508035706775	-0.7114299221459156	0.0	1.8708040958756207	-0.4863576193580222	0.0	1.912884151632649	-0.5780040792219961	0.0	1.8992962060744996	-0.6953842802362031	0.0	1.9033279818400426	-0.7153797693659057	0.0	1.903255459404814	-0.7073564947218179	0.0	1.897236579329841	-0.7040352807890483	0.0	1.9180280479401892	-0.28767055121246193	0.0	1.9254805396617598	-0.21659133514464954	0.0	1.9210235224399774	-0.23623386952486572	0.0	1.9154304680294363	-0.3080533396408465	0.0	1.870923722807959	-0.40079478313961636	0.0	1.8747360372532567	-0.40704780890534703	0.0	1.8655653604509768	-0.31392904195089005	0.0	1.8485225918155266	-0.4079612002230144	0.0	1.8723391166934684	-0.42400117376070867	0.0
155	5.1960227272727275	1.8998148034640605	-0.4691918785480645	0.0	1.911188900497069	-0.48324569668754963	0.0	1.922168734402028	-0.6234503527571237	0.0	1.8516581014148679	-0.7080483441653037	0.0	1.830170319856936	-0.7700459022738411	0.0	1.8305376948609893	-0.7640934475615898	0.0	1.8317258908592053	-0.7077942678346802	0.0	1.8812941378217143	-0.4838137288978806	0.0	1.9126757469133044	-0.5785610669443135	0.0	1.8926341874618469	-0.6946135662946886	0.0	1.8973302971308943	-0.7254517525139452	0.0	1.8897151222137654	-0.7093208472740358	0.0	1.8919239953302793	-0.7006808504039305	0.0	1.9214578923082348	-0.28941991245395443	0.0	1.926433671699157	-0.2200963747645671	0.0	1.9226172829488473	-0.23219192443559075	0.0	1.9130766963352601	-0.30875240266518333	0.0	1.8731079839146976	-0.40137686767798325	0.0	1.8786967801879315	-0.409149494936979	0.0	1.8771763523072662	-0.31287257826353415	0.0	1.8605613977925244	-0.4059542553200545	0.0	1.8854424859272878	-0.4175012602322822	0.0
156	5.2295454545454545	1.9060578925452796	-0.4664737890619998	0.0	1.91289685388565	-0.4811043891213022	0.0	1.92179250956032	-0.620536011217394	0.0	1.857738156858655	-0.7048887585665756	0.0	1.8352565194962691	-0.7649418591318276	0.0	1.8346833129754612	-0.7590029471071394	0.0	1.8392117181604941	-0.7040007328104904	0.0	1.8909405871013967	-0.4810117729876522	0.0	1.9120476181716435	-0.5799204074817714	0.0	1.8844282876746916	-0.6934541041912837	0.0	1.8902118796637382	-0.7372063190372042	0.0	1.8752154223046622	-0.7145500559212156	0.0	1.882376682663329	-0.6966269150389759	0.0	1.9233781026742565	-0.2922659155256066	0.0	1.9262752928846736	-0.22518352036338543	0.0	1.9233453875558768	-0.2310306691311647	0.0	1.9115859945115192	-0.3098028820834196	0.0	1.8790282224372816	-0.4012168867906632	0.0	1.8855044714539366	-0.4119673902960985	0.0	1.889008093346837	-0.31235158808357855	0.0	1.8730665596974958	-0.40366353035240204	0.0	1.8964467785199208	-0.41505587985366904	0.0
157	5.263068181818182	1.9112482679559344	-0.4635745616863686	0.0	1.9139812983416131	-0.4786008963687072	0.0	1.9208233171349163	-0.6165917485474878	0.0	1.8635326262637826	-0.7016699490666413	0.0	1.8409846734869282	-0.7599730964642589	0.0	1.8396929475555515	-0.7539510437215763	0.0	1.8463578195499284	-0.7001967377961725	0.0	1.8991664066554068	-0.4782150287814105	0.0	1.9112480236543996	-0.5814510309880778	0.0	1.877213137510324	-0.6924074368380704	0.0	1.882783527025347	-0.7473610362825548	0.0	1.8634153921391374	-0.7225620863543506	0.0	1.871475675180583	-0.6931577565282763	0.0	1.9241379558177356	-0.2956593195030082	0.0	1.9254138385961803	-0.23100200937236864	0.0	1.9231623042727892	-0.2326921241754144	0.0	1.9116321856328826	-0.3111407792118521	0.0	1.8870952057504962	-0.4003146641399317	0.0	1.8933584693907484	-0.4149528199391477	0.0	1.9001388611376955	-0.3123828894398129	0.0	1.8852012819658985	-0.4012556803444678	0.0	1.9049332359532527	-0.41656775278624136	0.0
158	5.296590909090909	1.9150319387788157	-0.4608138163794621	0.0	1.9145237675860853	-0.47616187423343004	0.0	1.919508884637831	-0.6123165113213299	0.0	1.86863784730885	-0.6986511442698671	0.0	1.8465382431815023	-0.7556597241481472	0.0	1.8448477567083466	-0.7494513614012454	0.0	1.852582760993572	-0.69671951173741	0.0	1.9054939671385749	-0.4757637125532786	0.0	1.9105261806802416	-0.5824108920666954	0.0	1.8723631947124937	-0.6915406936973267	0.0	1.8755822525072905	-0.7538460132461381	0.0	1.8559209153651244	-0.7314522979000632	0.0	1.8620811522824396	-0.6908658102405113	0.0	1.9240791348913406	-0.29905594200346486	0.0	1.9242057689870795	-0.23642977326911596	0.0	1.922250733614345	-0.23594782918049478	0.0	1.9130467902496937	-0.3125873365043893	0.0	1.8952716926218884	-0.3987921938247499	0.0	1.900448007278717	-0.41754345778283364	0.0	1.909385769896726	-0.3129111043191622	0.0	1.8957120959885383	-0.3989869090390791	0.0	1.910953434325689	-0.420450086732239	0.0
159	5.330113636363636	1.9172963805651455	-0.4585618075555138	0.0	1.9146531865601133	-0.47420118186796706	0.0	1.9181983811949117	-0.6086435283673947	0.0	1.8725764425322984	-0.696190050947737	0.0	1.8510415050623625	-0.7524751864825379	0.0	1.8492713751877303	-0.7460293043668333	0.0	1.8572837586019575	-0.6939675896947096	0.0	1.9097055541872887	-0.4739216714551428	0.0	1.9099830429019375	-0.5827022090408469	0.0	1.8699850227057655	-0.6908708284947552	0.0	1.869268748179159	-0.7568105420846167	0.0	1.8523157722190178	-0.7390732170815056	0.0	1.8557222330083143	-0.6897299314021211	0.0	1.9235781640716938	-0.3019543182152521	0.0	1.9229500307799767	-0.24062582288306253	0.0	1.9210112560972332	-0.23937728809485723	0.0	1.9150335842266522	-0.31390828719128366	0.0	1.901940111792975	-0.39703606453969503	0.0	1.9056309990452351	-0.41939128188374397	0.0	1.9159049500944358	-0.31373843567980864	0.0	1.9035258041948397	-0.3971272118240342	0.0	1.9147563027326016	-0.4246203139733134	0.0
160	5.363636363636363	1.9183048975889496	-0.45702779016042616	0.0	1.914555130499755	-0.4729116735177129	0.0	1.917176729828397	-0.6061315841042334	0.0	1.8751183503962905	-0.6945176222288514	0.0	1.8540335341436596	-0.7505479152044203	0.0	1.8523865346553814	-0.7438822230485327	0.0	1.8602283540615665	-0.6921526803682206	0.0	1.9119949416581647	-0.47276184263531423	0.0	1.9096285539553068	-0.5826053195529991	0.0	1.8693743927448776	-0.6904293559864992	0.0	1.864538382456815	-0.757485466258447	0.0	1.851316332682235	-0.7442736033827811	0.0	1.852355848814556	-0.6893986435318268	0.0	1.9229890603070015	-0.30401832629605186	0.0	1.9219183595396634	-0.24329833510777307	0.0	1.9198820443357136	-0.2420702314780559	0.0	1.916827955299131	-0.3149056814699344	0.0	1.9063846950312864	-0.39551646230613413	0.0	1.9086808913435913	-0.4204532880366338	0.0	1.919651513329321	-0.31457261034078143	0.0	1.9083316400964998	-0.39584602732000856	0.0	1.9167477933596095	-0.4277573145109422	0.0
161	5.397159090909091	1.9185141319142773	-0.4561871843579117	0.0	1.9143863089634825	-0.47224032057374865	0.0	1.9165413018625446	-0.6047760999711589	0.0	1.8764168885336923	-0.6936079665033683	0.0	1.8556088493327874	-0.7496543458294261	0.0	1.8541460644750567	-0.7428304061221438	0.0	1.8616676404586434	-0.6912003016320485	0.0	1.9128804355935858	-0.472184449141584	0.0	1.9094391348104374	-0.5823744764477231	0.0	1.8696773631917512	-0.6901979144406832	0.0	1.8616464960284143	-0.7570382256835202	0.0	1.8516661125251155	-0.7470822571499274	0.0	1.8511370577427584	-0.6894907943441818	0.0	1.922518944284795	-0.30520599386176067	0.0	1.9212434396142872	-0.24463725191619032	0.0	1.9190942823346744	-0.24374895056792675	0.0	1.9180711106139077	-0.31551449201622916	0.0	1.9087405931271004	-0.3944843751951673	0.0	1.910027311492052	-0.42090435562137424	0.0	1.9212496901641647	-0.31520391318492086	0.0	1.9106223460147638	-0.3951344448315356	0.0	1.9174719313324633	-0.42958949727665896	0.0
